<?xml version="1.0" encoding="UTF-8"?>
<!DOCTYPE svg PUBLIC "-//W3C//DTD SVG 1.1//EN" "http://www.w3.org/Graphics/SVG/1.1/DTD/svg11.dtd">
<!-- Creator: CorelDRAW 2019 (64-Bit) -->
<svg xmlns="http://www.w3.org/2000/svg" xml:space="preserve" width="88px" height="24px" version="1.1" style="shape-rendering:geometricPrecision; text-rendering:geometricPrecision; image-rendering:optimizeQuality; fill-rule:evenodd; clip-rule:evenodd"
viewBox="0 0 88 23.85"
 xmlns:xlink="http://www.w3.org/1999/xlink"
 xmlns:xodm="http://www.corel.com/coreldraw/odm/2003">
 <defs>
  <style type="text/css">
   <![CDATA[
    .fil0 {fill:#3C3C3C;fill-rule:nonzero}
   ]]>
  </style>
 </defs>
 <g id="Layer_x0020_1">
  <metadata id="CorelCorpID_0Corel-Layer"/>
  <g id="_1302135981728">
   <g>
    <path class="fil0" d="M31.79 5.9c0.25,-0.18 0.59,-0.2 0.91,-0.2 0.04,0 0.5,0.03 0.74,0.03l0.02 0c0.07,0 0.12,0 0.12,-0.01l0 0c0.13,-0.02 0.25,-0.03 0.35,-0.08l0 0c0.1,-0.04 0.17,-0.09 0.24,-0.17 0.01,-0.01 0.03,-0.04 0.03,-0.05 0.04,-0.06 0.08,-0.13 0.11,-0.22 0.03,-0.11 0.06,-0.23 0.06,-0.37l0 -0.43c0,-0.6 -0.21,-0.91 -0.63,-0.94 -0.06,0 -0.11,0 -0.17,-0.01l-0.01 0c-0.09,0 -0.18,-0.02 -0.25,-0.02l-0.21 0c-1.19,0 -2.44,-0.17 -3.4,0.66 -0.44,0.37 -0.71,0.87 -0.87,1.43 -0.24,0.84 -0.21,1.74 -0.21,2.61l0 1.5 0 4.09 0 0.77 0 2.29 0 2.32c0,0.6 0.28,0.92 0.87,0.96l0.78 0.07c0.3,0.03 0.54,-0.03 0.7,-0.18 0.16,-0.16 0.24,-0.39 0.24,-0.7l0 -8.71 2.12 0c0.61,0 0.91,-0.3 0.91,-0.91l0 -0.46c0,-0.61 -0.3,-0.91 -0.91,-0.91l-2.09 0 0 -0.6 0 -0.06c0,-0.61 -0.03,-1.28 0.55,-1.7z"/>
    <path class="fil0" d="M24.28 9.55c-1.04,-1.03 -2.34,-1.54 -3.92,-1.54 -1.14,0 -2.18,0.29 -3.13,0.85 -0.94,0.57 -1.65,1.32 -2.17,2.27 -0.51,0.94 -0.77,1.97 -0.77,3.09 0,1.12 0.26,2.14 0.77,3.1 0.52,0.94 1.25,1.7 2.17,2.27 0.93,0.57 1.97,0.84 3.13,0.84 1.59,0 2.9,-0.51 3.94,-1.55l0 0.37c0,0.61 0.3,0.91 0.91,0.91l0.79 0c0.61,0 0.91,-0.3 0.91,-0.91l-0.02 -10.45c-0.03,-0.53 -0.33,-0.8 -0.91,-0.8l-0.78 0c-0.62,0 -0.92,0.3 -0.92,0.92l0 0.37 0 0.26zm0.02 6.4c-0.31,0.66 -0.78,1.17 -1.4,1.56 -0.63,0.38 -1.31,0.57 -2.08,0.57 -1.09,0 -2,-0.37 -2.76,-1.13 -0.74,-0.74 -1.13,-1.67 -1.13,-2.76 0,-1.08 0.37,-1.99 1.13,-2.74 0.74,-0.74 1.67,-1.12 2.76,-1.12 0.75,0 1.44,0.2 2.07,0.58 0.63,0.4 1.1,0.92 1.41,1.56l0 3.48z"/>
    <path class="fil0" d="M2.63 9.54c1.04,-1.03 2.35,-1.54 3.92,-1.54 1.15,0 2.19,0.28 3.13,0.84 3.77,2.28 2.92,6.63 2.93,10.38 0,0.62 -0.3,0.91 -0.92,0.91l-0.78 0c-0.62,0 -0.92,-0.29 -0.92,-0.91l0 -0.37 0 0 0 -2.93c-0.02,-1.7 0.2,-3.17 -1.14,-4.48 -0.74,-0.75 -1.67,-1.13 -2.75,-1.13 -0.76,0 -1.44,0.2 -2.07,0.58 -0.63,0.4 -1.1,0.92 -1.42,1.56l0 3.48 0 0 0 2.93 0 0 0 0.37c0,0.61 -0.3,0.91 -0.91,0.91l-0.79 0c-0.61,0 -0.91,-0.3 -0.91,-0.91l0.02 -10.44c0.04,-0.54 0.34,-0.8 0.91,-0.8l0.79 0c0.61,0 0.91,0.3 0.91,0.91l0 0.37 0 0.27z"/>
   </g>
   <g>
    <path class="fil0" d="M45.71 13.7c-0.43,0.34 -0.48,0.77 -0.15,1.28 0.49,0.75 0.73,1.53 0.73,2.34 0,1.09 -0.37,2 -1.13,2.76 -0.74,0.74 -1.67,1.13 -2.75,1.13 -1.09,0 -2,-0.37 -2.74,-1.13 -0.74,-0.74 -1.13,-1.67 -1.13,-2.76 0,-0.74 0.23,-1.49 0.67,-2.24 0.31,-0.51 0.24,-0.94 -0.24,-1.27l-0.52 -0.34c-0.52,-0.34 -0.94,-0.26 -1.25,0.24 -0.67,1.06 -1,2.27 -1,3.61 0,1.23 0.27,2.35 0.83,3.35 0.55,1 1.3,1.78 2.25,2.34 0.96,0.55 2,0.84 3.13,0.84 1.14,0 2.18,-0.29 3.12,-0.84 0.96,-0.56 1.7,-1.34 2.26,-2.34 0.56,-1 0.83,-2.12 0.83,-3.35 0,-1.49 -0.4,-2.81 -1.2,-3.95 -0.32,-0.43 -0.73,-0.44 -1.23,-0.06l-0.48 0.39z"/>
    <path class="fil0" d="M46.25 6.52c-0.01,1.06 -0.39,1.96 -1.13,2.7 -0.74,0.74 -1.67,1.13 -2.76,1.13 -1.08,0 -1.99,-0.37 -2.74,-1.13 -0.42,-0.43 -0.74,-0.92 -0.92,-1.47l0 0 -0.01 -0.03 0 -0.01 -0.01 -0.03 -0.01 -0.02 0 -0.01 -0.01 -0.03 0 -0.01 -0.03 -0.1 -0.01 -0.03 0 -0.01 -0.01 -0.03 0 0 -0.01 -0.04 0 -0.01 -0.01 -0.02 0 -0.03 -0.01 -0.01 0 -0.03 0 -0.01c-0.05,-0.24 -0.08,-0.5 -0.08,-0.77l0 -0.05c0,-0.26 0.03,-0.52 0.08,-0.77l0 -0.01 0 -0.03 0.01 -0.01 0 -0.02 0.01 -0.03 0 -0.01 0.01 -0.03 0 0 0.01 -0.04 0 -0.01 0.01 -0.03 0.04 -0.14 0 -0.01 0.01 -0.02 0.01 -0.03 0 -0.01 0.01 -0.03 0 0c0.18,-0.55 0.5,-1.04 0.92,-1.47 0.75,-0.76 1.66,-1.13 2.74,-1.13 1.09,0 2.02,0.39 2.76,1.13 0.76,0.76 1.13,1.68 1.13,2.75zm-10.09 -0.05l0 0 0 0.05 0 0.01c0,1.34 0.32,2.55 0.99,3.61 0.06,0.08 0.11,0.15 0.17,0.21 0.51,0.75 1.14,1.35 1.92,1.8 0.95,0.56 2,0.84 3.12,0.84 1.15,0 2.19,-0.28 3.13,-0.84 0.65,-0.38 1.2,-0.86 1.66,-1.44 0.08,-0.06 0.15,-0.13 0.22,-0.23 0.84,-1.19 1.2,-2.52 1.2,-3.96l0 -0.05c0,-1.5 -0.4,-2.82 -1.2,-3.96 -0.42,-0.58 -1.26,-1.31 -1.88,-1.67 -0.94,-0.55 -1.98,-0.84 -3.13,-0.84 -1.12,0 -2.17,0.29 -3.12,0.84 -2.02,1.18 -3.08,3.32 -3.08,5.63z"/>
   </g>
   <g>
    <path class="fil0" d="M83.97 13.02c-1.4,-0.29 -2.11,-0.83 -2.11,-1.63 0,-0.36 0.17,-0.63 0.5,-0.84 0.33,-0.2 0.75,-0.32 1.27,-0.32 0.57,0 1.15,0.2 1.77,0.59 0.51,0.34 0.94,0.28 1.3,-0.17l0.25 -0.33c0.19,-0.23 0.28,-0.46 0.26,-0.7 -0.01,-0.23 -0.16,-0.43 -0.4,-0.59 -1.04,-0.69 -2.17,-1.04 -3.38,-1.04 -1.26,0 -2.27,0.32 -3.03,0.94 -0.76,0.63 -1.14,1.43 -1.14,2.4 0,1 0.31,1.8 0.94,2.41 0.63,0.62 1.6,1.06 2.93,1.32 0.83,0.17 1.41,0.38 1.75,0.64 0.35,0.26 0.52,0.6 0.52,1.03 0,0.43 -0.19,0.78 -0.56,1.04 -0.37,0.26 -0.86,0.39 -1.48,0.39 -0.88,0 -1.67,-0.28 -2.4,-0.83 -0.5,-0.39 -0.93,-0.37 -1.29,0.07l-0.3 0.36c-0.4,0.48 -0.37,0.91 0.06,1.28 1.1,0.91 2.47,1.36 4.1,1.36 1.37,0 2.45,-0.35 3.27,-1.02 0.8,-0.67 1.2,-1.54 1.2,-2.59 0,-1.02 -0.33,-1.83 -0.97,-2.45 -0.66,-0.6 -1.68,-1.04 -3.06,-1.32z"/>
    <path class="fil0" d="M62.25 3.43l-0.79 0c-0.61,0 -0.91,0.3 -0.91,0.91l0 5.22c-1.04,-1.04 -2.35,-1.55 -3.94,-1.55 -1.14,0 -2.18,0.28 -3.13,0.84 -0.94,0.57 -1.65,1.33 -2.17,2.27 -0.51,0.94 -0.77,1.97 -0.77,3.1 0,1.11 0.26,2.14 0.77,3.09 0.52,0.95 1.24,1.7 2.17,2.27 0.93,0.57 1.97,0.85 3.13,0.85 1.59,0 2.9,-0.52 3.94,-1.56l0 0.37c0,0.61 0.3,0.91 0.91,0.91l0.79 0c0.61,0 0.91,-0.3 0.91,-0.91l0 -14.9c0,-0.61 -0.3,-0.91 -0.91,-0.91zm-1.7 12.51c-0.31,0.66 -0.78,1.17 -1.4,1.56 -0.63,0.38 -1.31,0.57 -2.08,0.57 -1.09,0 -2,-0.37 -2.76,-1.13 -0.74,-0.74 -1.13,-1.67 -1.13,-2.75 0,-1.09 0.37,-2 1.13,-2.74 0.74,-0.75 1.67,-1.13 2.76,-1.13 0.75,0 1.44,0.2 2.07,0.58 0.63,0.4 1.1,0.92 1.41,1.56l0 3.48z"/>
    <path class="fil0" d="M74.39 8.82c-0.95,-0.54 -2.02,-0.81 -3.19,-0.81 -0.9,0 -1.74,0.15 -2.54,0.48 -0.8,0.33 -1.47,0.76 -2.03,1.32 -0.55,0.55 -1,1.21 -1.32,1.97 -0.33,0.75 -0.49,1.57 -0.49,2.42 0,0.86 0.16,1.66 0.49,2.43 0.31,0.75 0.75,1.41 1.32,1.97 0.57,0.55 1.26,1 2.09,1.33 0.83,0.32 1.71,0.48 2.68,0.48 1.79,0 3.3,-0.5 4.56,-1.5 0.47,-0.4 0.47,-0.84 -0.02,-1.3l-0.44 -0.42c-0.4,-0.38 -0.83,-0.38 -1.3,-0.02 -0.88,0.66 -1.84,0.99 -2.87,0.99 -0.97,0 -1.83,-0.29 -2.54,-0.87 -0.71,-0.59 -1.14,-1.33 -1.3,-2.25l8.91 0c0.29,0 0.53,-0.07 0.7,-0.21 0.17,-0.14 0.26,-0.36 0.27,-0.63 0.02,-0.06 0.02,-0.13 0.02,-0.23 0,-1.08 -0.26,-2.08 -0.79,-2.98 -0.53,-0.9 -1.26,-1.63 -2.21,-2.17zm-6.8 4.08c0.24,-0.77 0.7,-1.41 1.37,-1.91 0.67,-0.5 1.41,-0.74 2.24,-0.74 0.85,0 1.57,0.24 2.19,0.74 0.61,0.5 1.03,1.13 1.24,1.91l-7.04 0z"/>
   </g>
  </g>
 </g>
</svg>
