<?xml version="1.0" encoding="UTF-8"?>
<!DOCTYPE svg PUBLIC "-//W3C//DTD SVG 1.1//EN" "http://www.w3.org/Graphics/SVG/1.1/DTD/svg11.dtd">
<!-- Creator: CorelDRAW 2019 (64-Bit) -->
<svg xmlns="http://www.w3.org/2000/svg" xml:space="preserve" width="309px" height="592px" version="1.1" style="shape-rendering:geometricPrecision; text-rendering:geometricPrecision; image-rendering:optimizeQuality; fill-rule:evenodd; clip-rule:evenodd"
viewBox="0 0 308.93 591.24"
 xmlns:xlink="http://www.w3.org/1999/xlink"
 xmlns:xodm="http://www.corel.com/coreldraw/odm/2003">
 <defs>
  <style type="text/css">
   <![CDATA[
    .fil0 {fill:#E6E6E6;fill-rule:nonzero}
   ]]>
  </style>
 </defs>
 <g id="Layer_x0020_1">
  <metadata id="CorelCorpID_0Corel-Layer"/>
  <g id="_2143875970352">
   <path class="fil0" d="M72.18 339.57c10.62,8.5 11.68,19.1 3.54,31.86 -12.02,18.41 -18.03,37.87 -18.03,58.05 0,26.9 9.18,49.55 27.94,68.31 18.39,18.41 41.39,27.96 68.3,27.96 26.88,0 49.53,-9.2 67.94,-27.96 18.39,-18.41 27.94,-41.41 27.94,-68.31 0,-18.41 -5.65,-37.18 -16.64,-55.58 -7.78,-12.74 -6.01,-23.37 6.03,-31.5l12.74 -8.5c13.09,-8.48 23.34,-6.37 31.12,6.03 16.64,26.19 24.78,56.27 24.78,89.54 0,30.45 -6.73,58.05 -20.52,82.83 -13.81,24.77 -32.2,44.23 -55.92,58.04 -23.68,13.81 -49.53,20.9 -77.47,20.9 -28.32,0 -54.15,-7.09 -77.49,-20.9 -23.72,-13.81 -42.11,-33.27 -55.9,-58.04 -13.81,-24.78 -20.54,-52.38 -20.54,-82.83 0,-37.17 9.91,-69.72 29.71,-98.04 7.8,-10.63 18.05,-10.98 30.45,-1.41l12.02 9.55 0 0z"/>
   <path class="fil0" d="M58.78 161.53c0.27,26.37 9.46,48.6 27.92,67.06 18.41,18.41 41.4,27.96 68.3,27.96 26.89,0 49.53,-9.19 67.94,-27.96 10.62,-10.62 18.33,-22.79 22.9,-36.4l0.01 -0.02 0.29 -0.87 0.07 -0.22 0.22 -0.66 0.12 -0.45 0.13 -0.41 0.21 -0.7 0.05 -0.17 0.72 -2.62 0.16 -0.59 0.07 -0.28 0.22 -0.86 0 -0.02 0.21 -0.88 0.06 -0.25 0.14 -0.6 0.12 -0.56 0.08 -0.32 0.16 -0.82 0.01 -0.06c1.26,-6.19 1.92,-12.61 1.99,-19.3l0 -1.02c-0.09,-6.69 -0.75,-13.11 -1.99,-19.3l-0.01 -0.05 -0.16 -0.82 -0.08 -0.33 -0.12 -0.55 -0.14 -0.61 -0.06 -0.25 -0.21 -0.88 0 -0.01 -0.22 -0.86 -0.07 -0.29 -0.16 -0.59 -0.98 -3.47 -0.13 -0.43 -0.12 -0.45 -0.22 -0.66 -0.07 -0.21 -0.29 -0.88 -0.01 -0.02c-4.58,-13.59 -12.28,-25.77 -22.9,-36.4 -18.41,-18.76 -41.05,-27.96 -67.94,-27.96 -26.9,0 -49.89,9.55 -68.3,27.96 -18.8,18.8 -27.92,41.54 -27.92,68.08l0 0zm250.15 -1.25l0 0.05 0 1.36 0 0.07c0,33.27 -8.16,63.36 -24.78,89.55 -1.3,2.09 -2.68,3.88 -4.15,5.37 -12.61,18.4 -28.31,33.3 -47.51,44.47 -23.7,13.81 -49.55,20.89 -77.49,20.89 -28.32,0 -54.13,-7.08 -77.49,-20.89 -16.07,-9.36 -29.7,-21.31 -41.09,-35.74 -2,-1.35 -3.88,-3.22 -5.62,-5.6 -20.59,-29.41 -29.73,-62.38 -29.73,-98.12l0 -1.41c0,-37.17 9.93,-69.73 29.73,-98.05 10.61,-14.47 31.41,-32.45 46.71,-41.34 23.36,-13.81 49.17,-20.89 77.49,-20.89 27.94,0 53.79,7.08 77.49,20.89 50.02,29.12 76.44,82.31 76.44,139.39l0 0z"/>
  </g>
 </g>
</svg>
