<?xml version="1.0" standalone="no"?>
<!DOCTYPE svg PUBLIC "-//W3C//DTD SVG 20010904//EN"
 "http://www.w3.org/TR/2001/REC-SVG-20010904/DTD/svg10.dtd">
<svg version="1.0" xmlns="http://www.w3.org/2000/svg"
 width="1198.000000pt" height="1198.000000pt" viewBox="0 0 1198.000000 1198.000000"
 preserveAspectRatio="xMidYMid meet">
<metadata>
Created by potrace 1.11, written by Peter Selinger 2001-2013
</metadata>
<g transform="translate(0.000000,1198.000000) scale(0.100000,-0.100000)"
fill="#000000" stroke="none">
<path d="M10 5995 l0 -5985 5980 0 5980 0 0 5985 0 5985 -5980 0 -5980 0 0
-5985z m6186 5145 c478 -38 900 -183 1294 -446 563 -375 965 -975 1119 -1669
53 -238 65 -364 65 -680 1 -315 -8 -419 -55 -655 -59 -295 -189 -629 -338
-869 -138 -223 -394 -519 -591 -683 -310 -259 -744 -467 -1141 -547 -323 -65
-715 -71 -1029 -15 -566 101 -1119 407 -1477 817 -48 56 -110 122 -137 147
-59 55 -175 228 -255 381 -181 344 -285 703 -321 1108 -18 193 -8 627 18 796
52 336 135 601 274 879 135 269 232 403 447 616 265 264 470 414 756 555 430
213 895 302 1371 265z m-2061 -5645 c86 -23 140 -56 308 -190 230 -183 252
-216 252 -370 0 -115 -10 -144 -114 -313 -122 -198 -209 -416 -253 -633 -20
-100 -23 -142 -23 -349 1 -262 13 -345 80 -547 112 -337 373 -666 687 -867
474 -303 1129 -340 1645 -95 156 74 286 171 444 328 249 250 382 484 453 802
71 317 55 620 -49 935 -40 121 -73 193 -224 488 -42 81 -46 96 -50 172 -3 72
0 90 22 138 39 84 93 134 275 254 202 134 250 155 352 156 89 1 150 -26 217
-96 104 -109 252 -391 344 -657 119 -344 166 -674 156 -1086 -6 -234 -20 -366
-58 -554 -141 -700 -568 -1349 -1137 -1728 -322 -214 -683 -354 -1079 -419
-133 -21 -526 -30 -680 -15 -723 73 -1396 449 -1824 1021 -304 406 -483 843
-554 1351 -22 157 -31 553 -16 715 46 504 193 945 441 1329 82 126 128 178
185 207 75 40 117 44 200 23z"/>
<path d="M5735 9994 c-399 -62 -732 -244 -1003 -547 -278 -312 -413 -674 -413
-1107 0 -242 33 -420 118 -635 113 -286 352 -576 628 -762 472 -317 1146 -363
1670 -113 268 128 551 392 713 664 277 464 303 1077 66 1573 -90 188 -261 409
-423 548 -254 216 -507 332 -832 379 -131 20 -399 20 -524 0z"/>
</g>
</svg>
